Coordinates
version=1
nRows=12
nColumns=33
inDegrees=yes

Units are S.I. units (second, meters, Newtons, ...)
Angles are in degrees.

endheader
time	ground_thorax_rot_x	ground_thorax_rot_y	ground_thorax_rot_z	ground_thorax_tx	ground_thorax_ty	ground_thorax_tz	clav_prot_r	clav_elev_r	scapula_abduction_r	scapula_elevation_r	scapula_upward_rot_r	scapula_winging_r	shoulder_elv_r	plane_of_elev_r	axial_rot_r	elbow_flexion_r	pro_sup_r	wrist_flex_r	wrist_dev_r	clav_prot_l	clav_elev_l	scapula_abduction_l	scapula_elevation_l	scapula_upward_rot_l	scapula_winging_l	shoulder_elv_l	plane_of_elev_l	axial_rot_l	elbow_flexion_l	pro_sup_l	wrist_flex_l	wrist_dev_l
      1.33000000	      4.75193929	     -8.14380438	     10.10923650	     -0.11046182	      1.03750898	      0.01002045	     13.55236021	     -5.12592081	     26.64753244	     -1.25959176	      6.59542983	     -9.61715672	     46.75578145	     26.16481341	     -2.82122235	     49.45508683	     40.03028819	      6.34878041	     16.59382410	      4.22716193	    -11.87528134	     -4.86389381	      1.51086927	    -10.35185664	     -2.84315191	     46.40514865	     29.28807555	     -4.72788304	     62.45951498	     19.30837018	      1.51130303	     -6.17819619
      1.34000000	      4.67694229	     -8.18956385	     10.14919989	     -0.11134719	      1.03728863	      0.00997415	     13.89829928	     -4.80735807	     27.03623861	     -0.85370900	      6.24627836	     -9.89333637	     47.78608410	     26.82237891	     -1.13989687	     50.75286345	     44.80990492	      3.52859231	      9.68530332	      4.40559645	    -11.44985751	     -5.26482084	      1.24785841	    -10.02161391	     -2.51720553	     46.56930701	     30.29420157	     -4.35536557	     62.75779972	     19.51718286	      0.61125302	     -6.39664548
      1.35000000	      4.59000042	     -8.25336028	      9.94704103	     -0.11167127	      1.03740320	      0.01048279	     13.76882775	     -3.99954056	     26.21244214	      0.24875921	      5.22144137	     -9.73591232	     48.43569608	     28.30442211	      3.36013293	     52.49138226	     52.03661573	     -5.04870140	     -3.11346995	      4.56976942	    -11.23892777	     -5.70582714	      1.25985974	     -9.53586073	     -2.25485401	     46.90138027	     30.89857456	     -3.63152250	     63.55130411	     19.57903425	     -0.12959617	     -6.67655785
      1.36000000	      5.10564430	     -8.11523022	      9.72290544	     -0.11225290	      1.03629705	      0.01170839	     13.18138198	     -2.22466418	     24.25273476	      2.40628319	      3.73023815	     -9.25314395	     50.40627131	     31.00814871	     13.81126298	     54.38686106	     52.97353978	    -23.61699990	    -14.54158368	      5.05840189	    -11.19225523	     -6.71387609	      1.40967301	     -9.07186706	     -1.85196896	     47.26927092	     31.56273187	     -2.30407135	     64.26304512	     19.55415790	     -0.86628147	     -6.87040206
      1.37000000	      4.13463816	     -7.06192673	      9.42482400	     -0.11137987	      1.03742968	      0.00985388	     12.58227786	     -4.59117102	     25.94234660	     -1.46750113	      8.36585319	     -9.50122950	     49.52020212	     28.88853314	     -5.56646723	     50.83455836	     35.35070509	      5.91079753	     13.88038211	      5.91796521	    -10.57737074	     -8.23260682	      0.88914197	     -8.88737421	     -1.06502182	     47.40470105	     33.37873169	     -2.55182852	     64.33660122	     19.73390398	     -1.32964772	     -6.91637245
      1.38000000	      3.59762445	     -6.44728384	      9.59264009	     -0.11167851	      1.03805738	      0.00941185	     12.56538182	     -4.46100030	     26.08902862	     -1.47714283	      8.68692239	     -9.60938069	     50.01846543	     28.10993040	     -9.73538073	     52.76510753	     36.22949207	      8.96982302	     21.23126368	      6.70588534	    -10.04158895	     -9.79998860	      0.65989298	     -8.23902256	     -0.24796745	     47.22467163	     33.98119585	     -2.32162924	     64.79600739	     20.32222397	     -2.22979730	     -7.43349983
      1.39000000	      3.61312691	     -6.42708763	      9.52368812	     -0.11165959	      1.03856767	      0.00956204	     12.38731553	     -4.49641774	     26.17322179	     -1.75699987	      9.35607873	     -9.64289720	     50.41956694	     28.53289893	    -10.23271853	     53.25853293	     36.24652932	      8.93330176	     21.09789565	      6.66042910	    -10.04037267	     -9.86766764	      0.83643742	     -7.84240007	     -0.19717261	     47.34620863	     34.57626787	     -1.93004320	     65.40390591	     20.31695825	     -2.39290691	     -7.53498938
      1.40000000	      3.47500570	     -6.25345101	      9.56487973	     -0.11171591	      1.03890492	      0.00950326	     12.29627503	     -4.47677194	     26.36624181	     -1.96012708	      9.94998203	     -9.73939680	     50.81941167	     28.74400761	    -11.09239787	     53.85937055	     36.40846934	      8.83284210	     21.00721148	      6.83771644	     -9.84271936	    -10.29183409	      0.80277477	     -7.49606986	      0.05478821	     47.55270729	     35.25741461	     -1.66119012	     65.95998236	     20.57502840	     -2.74562848	     -7.75338190
      1.41000000	      3.59983496	     -6.15406590	     10.00711241	     -0.11169451	      1.03960846	      0.00958847	     12.17531543	     -4.59278367	     26.42527303	     -2.21986113	     10.38694788	     -9.72891211	     51.07343673	     28.96848203	    -11.57591179	     54.26408603	     36.40223461	      8.84998100	     20.92429468	      6.83937113	     -9.91750030	    -10.30376249	      0.87804356	     -7.48308404	      0.03381136	     47.43372261	     35.69568025	     -1.39194426	     66.63500361	     20.57341295	     -2.89217990	     -7.86339316
      1.42000000	      3.51384676	     -6.11605554	     10.04698790	     -0.11143024	      1.04009431	      0.00964770	     12.08566797	     -4.68231530	     26.60126139	     -2.49235220	     10.92548437	     -9.77888215	     51.40383174	     29.18278056	    -12.35139332	     55.16590671	     36.48006659	      8.95522298	     20.95530925	      6.89440789	     -9.73415958	    -10.49651867	      0.83421027	     -7.19552649	      0.18737737	     47.64602149	     36.35059421	     -0.97487106	     67.23418056	     20.79145781	     -3.24510602	     -8.06071437
      1.43000000	      3.10013172	     -5.78256379	     10.37518849	     -0.11227898	      1.03995473	      0.00920048	     12.36884500	     -4.61220409	     27.34168367	     -2.58836048	     11.35355916	    -10.12260975	     51.73126747	     28.73589487	    -14.13185197	     56.22028434	     37.24467253	      9.12824748	     21.74689299	      7.67211706	     -8.94676398	    -11.79414311	      0.09253003	     -7.19326931	      0.96288526	     47.97677635	     37.51174391	     -0.25976614	     67.44931816	     21.95137630	     -4.37191958	     -8.60797765
      1.44000000	      3.21321353	     -5.80766244	     10.65771506	     -0.11219712	      1.04052200	      0.00928628	     12.20557184	     -4.63753373	     27.34215275	     -2.77369700	     11.81248409	    -10.11146069	     52.00804498	     29.03809980	    -14.38193186	     56.89991623	     37.21919928	      9.23334919	     21.67764194	      7.62182255	     -8.95548725	    -11.76486603	      0.16751077	     -7.04406387	      0.95969379	     48.00044588	     37.88791258	      0.04765903	     68.22219272	     21.92113196	     -4.51443236	     -8.72398654
